<?xml version="1.0" encoding="utf-8"?>
<!-- Generator: Adobe Illustrator 16.0.0, SVG Export Plug-In . SVG Version: 6.00 Build 0)  -->
<!DOCTYPE svg PUBLIC "-//W3C//DTD SVG 1.1//EN" "http://www.w3.org/Graphics/SVG/1.1/DTD/svg11.dtd">
<svg version="1.1" id="Layer_5" xmlns="http://www.w3.org/2000/svg" xmlns:xlink="http://www.w3.org/1999/xlink" x="0px" y="0px"
	 width="216px" height="360px" viewBox="0 0 216 360" enable-background="new 0 0 216 360" xml:space="preserve">
<g id="XMLID_3_" opacity="0.1">
	<polygon fill="#E6E7E8" points="54.438,11.86 108.497,27.519 38.54,61.97 	"/>
	<polygon fill="#E6E7E8" points="133.938,18.125 162.147,50.75 140.298,70.874 	"/>
	<polygon fill="#E6E7E8" points="38.54,61.97 108.497,27.519 51.745,88.104 	"/>
	<polygon fill="#E6E7E8" points="108.497,27.519 100.841,59.418 51.745,88.104 	"/>
	<polygon fill="#E6E7E8" points="140.298,70.874 162.147,50.75 146.658,90.164 	"/>
	<polygon fill="#E6E7E8" points="51.745,88.104 100.841,59.418 111.68,77.158 	"/>
	<polygon fill="#E6E7E8" points="140.298,70.874 146.658,90.164 132.875,107.648 	"/>
	<polygon fill="#E6E7E8" points="146.658,90.164 168.923,119.701 132.875,107.648 	"/>
	<polygon fill="#E6E7E8" points="73.518,96.429 105.32,140.281 54.438,119.701 	"/>
	<polygon fill="#E6E7E8" points="122.274,113.678 140.298,135.977 121.217,165.339 	"/>
	<polygon fill="#E6E7E8" points="140.298,135.977 168.923,119.701 210.261,155.938 	"/>
	<polygon fill="#E6E7E8" points="3.555,149.674 105.32,140.281 92.599,162.203 	"/>
	<polygon fill="#E6E7E8" points="3.555,149.674 92.599,162.203 54.438,184.804 	"/>
	<polygon fill="#E6E7E8" points="143.325,162.667 210.261,155.938 168.923,184.804 	"/>
	<polygon fill="#E6E7E8" points="54.438,184.804 92.599,162.203 83.062,201.08 	"/>
	<polygon fill="#E6E7E8" points="121.217,165.339 143.325,162.667 101.488,185.039 	"/>
	<polygon fill="#E6E7E8" points="143.325,162.667 168.923,184.804 171.295,219.041 	"/>
	<polygon fill="#E6E7E8" points="83.062,201.08 101.488,185.039 137.394,215.825 	"/>
	<polygon fill="#E6E7E8" points="101.488,185.039 171.295,219.041 137.394,215.825 	"/>
	<polygon fill="#E6E7E8" points="41.717,218.584 83.062,201.08 100.821,227.81 	"/>
	<polygon fill="#E6E7E8" points="137.394,215.825 171.295,219.041 171.527,243.004 	"/>
	<polygon fill="#E6E7E8" points="171.295,219.041 197.541,234.249 171.527,243.004 	"/>
	<polygon fill="#E6E7E8" points="64.315,245.2 100.821,227.81 102.143,290.623 	"/>
	<polygon fill="#E6E7E8" points="171.527,243.004 197.541,234.249 185.816,287.951 	"/>
	<polygon fill="#E6E7E8" points="140.298,266.183 185.816,287.951 213.445,350.14 	"/>
</g>
</svg>
